<svg width="5116" height="1573" viewBox="0 0 5116 1573" fill="none" xmlns="http://www.w3.org/2000/svg">
<path d="M1057.71 1077.15V1493.05C1057.71 1494.31 1057.21 1495.52 1056.32 1496.42C1055.43 1497.31 1054.22 1497.82 1052.96 1497.82C924.112 1497.72 770.868 1506.14 658.105 1490.52C240.226 1432.51 -69.7334 1041.6 13.6049 605.781C58.1068 372.526 216.468 176.978 424.905 75.6486C863.618 -137.49 1399.01 117.378 1485.27 619.067C1507.84 750.15 1498.62 914.167 1495.33 1057.41C1495.14 1065.96 1490.85 1070.26 1482.44 1070.32L1061.91 1072.76C1059.11 1072.82 1057.71 1074.29 1057.71 1077.15ZM1035.87 633.008C940.56 363.638 543.972 377.298 468.31 655.744C425.636 813.024 502.212 1002.12 660.756 1054.7C690.545 1064.55 741.291 1069.58 812.994 1069.76C892.068 1069.95 971.142 1069.92 1050.22 1069.67C1053.32 1069.67 1054.88 1068.08 1054.88 1064.9C1056.34 967.467 1055.97 870.254 1053.78 773.26C1052.38 709.512 1046.41 662.761 1035.87 633.008Z" fill="#1D64FF"/>
<path d="M2602.2 868C2602.2 974.4 2564.4 1063.53 2488.8 1135.4C2413.2 1206.33 2319.87 1241.8 2208.8 1241.8C2097.73 1241.8 2004.4 1205.4 1928.8 1132.6C1853.2 1058.87 1815.4 967.867 1815.4 859.6C1815.4 749.467 1853.2 658 1928.8 585.2C2004.4 511.467 2097.73 476 2208.8 478.8C2262 479.733 2310.53 491.4 2354.4 513.8C2398.27 536.2 2431.87 564.667 2455.2 599.2V200.2H2602.2V868ZM1955.4 859.6C1955.4 930.533 1979.67 990.267 2028.2 1038.8C2076.73 1087.33 2136.93 1111.6 2208.8 1111.6C2281.6 1111.6 2341.8 1087.33 2389.4 1038.8C2437.93 990.267 2462.2 930.533 2462.2 859.6C2462.2 786.8 2437.93 726.6 2389.4 679C2341.8 631.4 2281.6 607.6 2208.8 607.6C2136.93 607.6 2076.73 631.867 2028.2 680.4C1979.67 728 1955.4 787.733 1955.4 859.6ZM2794.6 1225V492.8H2941.6V1225H2794.6ZM2772.2 259C2772.2 233.8 2781.53 212.333 2800.2 194.6C2818.87 176.867 2841.27 168 2867.4 168C2893.53 168 2915.47 176.867 2933.2 194.6C2951.87 212.333 2961.2 233.8 2961.2 259C2961.2 285.133 2951.87 307.067 2933.2 324.8C2915.47 342.533 2893.53 351.4 2867.4 351.4C2840.33 351.4 2817.47 342.533 2798.8 324.8C2781.07 307.067 2772.2 285.133 2772.2 259ZM3205.44 1225V602H3100.44V492.8H3205.44V200.2H3358.04V492.8H3458.84V602H3358.04V1225H3205.44ZM4331.07 849.8V1225H4227.47L4223.27 1078C4193.4 1128.4 4152.34 1168.07 4100.07 1197C4047.8 1225.93 3989.94 1240.4 3926.47 1240.4C3816.34 1240.4 3724.87 1204.47 3652.07 1132.6C3579.27 1060.73 3543.34 969.267 3544.27 858.2C3545.2 745.267 3582.07 653.333 3654.87 582.4C3727.67 511.467 3821.94 476 3937.67 476C4052.47 476 4146.27 510.067 4219.07 578.2C4291.87 646.333 4329.2 736.867 4331.07 849.8ZM3682.87 859.6C3682.87 932.4 3706.67 992.6 3754.27 1040.2C3802.8 1087.8 3863.94 1111.6 3937.67 1111.6C4011.4 1111.6 4072.07 1087.8 4119.67 1040.2C4168.2 992.6 4192.47 932.4 4192.47 859.6C4192.47 784.933 4168.67 724.267 4121.07 677.6C4073.47 630.933 4012.34 607.6 3937.67 607.6C3863 607.6 3801.87 630.933 3754.27 677.6C3706.67 724.267 3682.87 784.933 3682.87 859.6ZM4954.54 1225L4762.74 953.4L4570.94 1225H4409.94L4681.54 838.6L4437.94 492.8H4600.34L4762.74 723.8L4925.14 492.8H5087.54L4843.94 838.6L5115.54 1225H4954.54Z" fill="black"/>
</svg>
