<svg width="5240" height="1574" viewBox="0 0 5240 1574" fill="none" xmlns="http://www.w3.org/2000/svg">
<path d="M1109.4 1129.79V1566.01C1109.4 1567.33 1108.87 1568.61 1107.94 1569.55C1107 1570.48 1105.73 1571.01 1104.41 1571.01C969.271 1570.91 808.538 1579.75 690.266 1563.36C251.966 1502.51 -73.1411 1092.5 14.2697 635.384C60.9463 390.731 227.046 185.627 445.669 79.3453C905.821 -144.208 1467.38 123.114 1557.86 649.319C1581.53 786.808 1571.85 958.84 1568.4 1109.09C1568.21 1118.05 1563.7 1122.56 1554.88 1122.63L1113.81 1125.18C1110.87 1125.25 1109.4 1126.78 1109.4 1129.79ZM1086.49 663.941C986.523 381.408 570.555 395.736 491.195 687.788C446.436 852.755 526.754 1051.09 693.045 1106.24C724.291 1116.58 777.517 1121.84 852.723 1122.04C935.661 1122.24 1018.6 1122.2 1101.54 1121.94C1104.8 1121.94 1106.43 1120.27 1106.43 1116.94C1107.96 1014.74 1107.58 912.781 1105.28 811.047C1103.81 744.184 1097.54 695.149 1086.49 663.941Z" fill="black"/>
<path d="M2689.5 868C2689.5 974.4 2651.7 1063.53 2576.1 1135.4C2500.5 1206.33 2407.17 1241.8 2296.1 1241.8C2185.03 1241.8 2091.7 1205.4 2016.1 1132.6C1940.5 1058.87 1902.7 967.867 1902.7 859.6C1902.7 749.467 1940.5 658 2016.1 585.2C2091.7 511.467 2185.03 476 2296.1 478.8C2349.3 479.733 2397.83 491.4 2441.7 513.8C2485.57 536.2 2519.17 564.667 2542.5 599.2V200.2H2689.5V868ZM2042.7 859.6C2042.7 930.533 2066.97 990.267 2115.5 1038.8C2164.03 1087.33 2224.23 1111.6 2296.1 1111.6C2368.9 1111.6 2429.1 1087.33 2476.7 1038.8C2525.23 990.267 2549.5 930.533 2549.5 859.6C2549.5 786.8 2525.23 726.6 2476.7 679C2429.1 631.4 2368.9 607.6 2296.1 607.6C2224.23 607.6 2164.03 631.867 2115.5 680.4C2066.97 728 2042.7 787.733 2042.7 859.6ZM2881.9 1225V492.8H3028.9V1225H2881.9ZM2859.5 259C2859.5 233.8 2868.84 212.333 2887.5 194.6C2906.17 176.867 2928.57 168 2954.7 168C2980.84 168 3002.77 176.867 3020.5 194.6C3039.17 212.333 3048.5 233.8 3048.5 259C3048.5 285.133 3039.17 307.067 3020.5 324.8C3002.77 342.533 2980.84 351.4 2954.7 351.4C2927.64 351.4 2904.77 342.533 2886.1 324.8C2868.37 307.067 2859.5 285.133 2859.5 259ZM3292.74 1225V602H3187.74V492.8H3292.74V200.2H3445.34V492.8H3546.14V602H3445.34V1225H3292.74ZM4418.37 849.8V1225H4314.77L4310.57 1078C4280.7 1128.4 4239.64 1168.07 4187.37 1197C4135.1 1225.93 4077.24 1240.4 4013.77 1240.4C3903.64 1240.4 3812.17 1204.47 3739.37 1132.6C3666.57 1060.73 3630.64 969.267 3631.57 858.2C3632.5 745.267 3669.37 653.333 3742.17 582.4C3814.97 511.467 3909.24 476 4024.97 476C4139.77 476 4233.57 510.067 4306.37 578.2C4379.17 646.333 4416.5 736.867 4418.37 849.8ZM3770.17 859.6C3770.17 932.4 3793.97 992.6 3841.57 1040.2C3890.1 1087.8 3951.24 1111.6 4024.97 1111.6C4098.7 1111.6 4159.37 1087.8 4206.97 1040.2C4255.5 992.6 4279.77 932.4 4279.77 859.6C4279.77 784.933 4255.97 724.267 4208.37 677.6C4160.77 630.933 4099.64 607.6 4024.97 607.6C3950.3 607.6 3889.17 630.933 3841.57 677.6C3793.97 724.267 3770.17 784.933 3770.17 859.6ZM5041.84 1225L4850.04 953.4L4658.24 1225H4497.24L4768.84 838.6L4525.24 492.8H4687.64L4850.04 723.8L5012.44 492.8H5174.84L4931.24 838.6L5202.84 1225H5041.84Z" fill="black"/>
</svg>
