
<svg xmlns="http://www.w3.org/2000/svg" width="1574" height="1574" viewBox="0 0 1574 1574" fill="none">
<path d="M1109.4 1129.79V1566.01C1109.4 1567.33 1108.87 1568.61 1107.94 1569.55C1107 1570.48 1105.73 1571.01 1104.41 1571.01C969.271 1570.91 808.538 1579.75 690.266 1563.36C251.966 1502.51 -73.1411 1092.5 14.2697 635.384C60.9463 390.731 227.046 185.627 445.669 79.3453C905.821 -144.208 1467.38 123.114 1557.86 649.319C1581.53 786.807 1571.85 958.84 1568.4 1109.09C1568.21 1118.05 1563.7 1122.56 1554.88 1122.63L1113.81 1125.18C1110.87 1125.25 1109.4 1126.78 1109.4 1129.79ZM1086.49 663.941C986.523 381.408 570.555 395.736 491.195 687.788C446.436 852.755 526.754 1051.09 693.045 1106.24C724.291 1116.58 777.517 1121.84 852.723 1122.04C935.661 1122.24 1018.6 1122.2 1101.54 1121.94C1104.8 1121.94 1106.43 1120.27 1106.43 1116.94C1107.96 1014.74 1107.58 912.781 1105.28 811.047C1103.81 744.184 1097.54 695.148 1086.49 663.941Z" fill="white"/>
</svg>
