<svg width="1573" height="1573" viewBox="0 0 1573 1573" fill="none" xmlns="http://www.w3.org/2000/svg">
<path d="M1057.71 1077.15V1493.05C1057.71 1494.31 1057.21 1495.52 1056.32 1496.42C1055.43 1497.31 1054.22 1497.82 1052.96 1497.82C924.112 1497.72 770.868 1506.14 658.105 1490.52C240.226 1432.51 -69.7334 1041.6 13.6049 605.781C58.1068 372.526 216.468 176.978 424.905 75.6486C863.618 -137.49 1399.01 117.378 1485.27 619.067C1507.84 750.15 1498.62 914.167 1495.33 1057.41C1495.14 1065.96 1490.85 1070.26 1482.44 1070.32L1061.91 1072.76C1059.11 1072.82 1057.71 1074.29 1057.71 1077.15ZM1035.87 633.008C940.56 363.638 543.972 377.298 468.31 655.744C425.636 813.024 502.212 1002.12 660.756 1054.7C690.545 1064.55 741.291 1069.58 812.994 1069.76C892.068 1069.95 971.142 1069.92 1050.22 1069.67C1053.32 1069.67 1054.88 1068.08 1054.88 1064.9C1056.34 967.467 1055.97 870.254 1053.78 773.26C1052.38 709.512 1046.41 662.761 1035.87 633.008Z" fill="#1D64FF"/>
</svg>
