<svg width="456" height="336" viewBox="0 0 456 336" fill="none" xmlns="http://www.w3.org/2000/svg">
<g opacity="0.3">
<circle cx="228" cy="190.421" r="141.25" fill="url(#paint0_linear_5033_43798)"/>
<circle cx="228" cy="190.421" r="141.25" stroke="url(#paint1_linear_5033_43798)" stroke-width="1.5"/>
<circle cx="228" cy="190.421" r="141.25" stroke="url(#paint2_linear_5033_43798)" stroke-opacity="0.6" stroke-width="1.5"/>
</g>
<g opacity="0.3">
<circle cx="230.5" cy="192.5" r="104.75" fill="url(#paint3_linear_5033_43798)"/>
<circle cx="230.5" cy="192.5" r="104.75" stroke="url(#paint4_linear_5033_43798)" stroke-width="1.5"/>
<circle cx="230.5" cy="192.5" r="104.75" stroke="url(#paint5_linear_5033_43798)" stroke-opacity="0.6" stroke-width="1.5"/>
</g>
<g opacity="0.3">
<path d="M230 119.75C270.455 119.75 303.25 152.545 303.25 193C303.25 233.455 270.455 266.25 230 266.25C189.545 266.25 156.75 233.455 156.75 193C156.75 152.545 189.545 119.75 230 119.75Z" fill="url(#paint6_linear_5033_43798)"/>
<path d="M230 119.75C270.455 119.75 303.25 152.545 303.25 193C303.25 233.455 270.455 266.25 230 266.25C189.545 266.25 156.75 233.455 156.75 193C156.75 152.545 189.545 119.75 230 119.75Z" stroke="url(#paint7_linear_5033_43798)" stroke-width="1.5"/>
<path d="M230 119.75C270.455 119.75 303.25 152.545 303.25 193C303.25 233.455 270.455 266.25 230 266.25C189.545 266.25 156.75 233.455 156.75 193C156.75 152.545 189.545 119.75 230 119.75Z" stroke="url(#paint8_linear_5033_43798)" stroke-opacity="0.6" stroke-width="1.5"/>
</g>
<foreignObject x="21.2632" y="-16.4332" width="212.89" height="212.89"><div xmlns="http://www.w3.org/1999/xhtml" style="backdrop-filter:blur(37.37px);clip-path:url(#bgblur_1_5033_43798_clip_path);height:100%;width:100%"></div></foreignObject><g filter="url(#filter0_di_5033_43798)" data-figma-bg-blur-radius="74.7368">
<g clip-path="url(#clip0_5033_43798)">
<rect x="127.708" y="121.72" width="44.8421" height="44.8421" rx="22.4211" transform="rotate(-135 127.708 121.72)" fill="#1F6CFF" fill-opacity="0.1" shape-rendering="crispEdges"/>
<g clip-path="url(#clip2_5033_43798)">
<path d="M120.984 82.3952L127.614 84.643L133.227 80.4561C133.351 80.3635 133.498 80.3074 133.652 80.2941C133.807 80.2809 133.961 80.3111 134.099 80.3813C134.237 80.4515 134.352 80.5589 134.432 80.6913C134.512 80.8237 134.553 80.9758 134.551 81.1304L134.458 88.1295L140.175 92.1726C140.301 92.2619 140.4 92.3848 140.46 92.5273C140.52 92.6698 140.539 92.8263 140.515 92.9791C140.491 93.1318 140.424 93.2748 140.323 93.3918C140.222 93.5087 140.09 93.5951 139.942 93.641L133.26 95.7225L131.18 102.408C131.133 102.556 131.047 102.687 130.93 102.788C130.813 102.889 130.67 102.955 130.517 102.98C130.364 103.004 130.208 102.985 130.065 102.925C129.923 102.865 129.8 102.766 129.71 102.64L125.67 96.9253L118.671 97.019C118.516 97.0211 118.364 96.9799 118.232 96.8999C118.1 96.82 117.992 96.7046 117.922 96.5668C117.852 96.429 117.822 96.2743 117.835 96.1202C117.848 95.9662 117.904 95.8189 117.997 95.695L122.18 90.0785L119.932 83.4479C119.883 83.3014 119.875 83.1439 119.91 82.9932C119.945 82.8426 120.022 82.7048 120.131 82.5953C120.241 82.4858 120.378 82.4091 120.529 82.3737C120.68 82.3384 120.837 82.3458 120.984 82.3952Z" fill="#1F6CFF" fill-opacity="0.6"/>
</g>
</g>
<rect x="127.708" y="120.927" width="43.7211" height="43.7211" rx="21.8605" transform="rotate(-135 127.708 120.927)" stroke="url(#paint9_linear_5033_43798)" stroke-opacity="0.25" stroke-width="1.12105" shape-rendering="crispEdges"/>
</g>
<foreignObject x="69.7446" y="-44.8012" width="208.063" height="208.063"><div xmlns="http://www.w3.org/1999/xhtml" style="backdrop-filter:blur(37.37px);clip-path:url(#bgblur_3_5033_43798_clip_path);height:100%;width:100%"></div></foreignObject><g filter="url(#filter1_di_5033_43798)" data-figma-bg-blur-radius="74.7368">
<rect x="161.642" y="88.5247" width="44.8421" height="44.8421" rx="22.4211" transform="rotate(-112.5 161.642 88.5247)" fill="#1F6CFF" fill-opacity="0.1" shape-rendering="crispEdges"/>
<rect x="161.945" y="87.7923" width="43.7211" height="43.721" rx="21.8605" transform="rotate(-112.5 161.945 87.7923)" stroke="url(#paint10_linear_5033_43798)" stroke-opacity="0.25" stroke-width="1.12105" shape-rendering="crispEdges"/>
<g clip-path="url(#clip4_5033_43798)">
<path d="M170.064 49.4515L175.367 54.0232L182.141 52.2486C182.29 52.2092 182.448 52.2125 182.596 52.258C182.744 52.3036 182.876 52.3896 182.977 52.5064C183.078 52.6232 183.145 52.766 183.17 52.9187C183.194 53.0714 183.175 53.2279 183.115 53.3704L180.402 59.8228L184.184 65.716C184.268 65.8462 184.313 65.9971 184.315 66.1518C184.317 66.3064 184.276 66.4586 184.197 66.5911C184.117 66.7236 184.002 66.8312 183.864 66.9017C183.726 66.9721 183.572 67.0027 183.418 66.9899L176.442 66.4115L172.005 71.8279C171.907 71.9473 171.777 72.0369 171.631 72.0865C171.485 72.1362 171.327 72.144 171.177 72.109C171.026 72.074 170.888 71.9977 170.779 71.8886C170.669 71.7795 170.592 71.6419 170.557 71.4915L168.956 64.6784L162.433 62.1389C162.289 62.0828 162.164 61.9874 162.071 61.8637C161.978 61.7399 161.922 61.5927 161.908 61.4386C161.895 61.2845 161.925 61.1298 161.995 60.992C162.065 60.8541 162.173 60.7386 162.305 60.6586L168.29 57.0223L168.695 50.0328C168.704 49.8784 168.756 49.7295 168.845 49.6031C168.934 49.4766 169.057 49.3776 169.199 49.3171C169.342 49.2567 169.498 49.2372 169.651 49.261C169.804 49.2847 169.947 49.3507 170.064 49.4515Z" fill="#1F6CFF" fill-opacity="0.6"/>
</g>
</g>
<foreignObject x="130.959" y="-48.7368" width="194.316" height="194.316"><div xmlns="http://www.w3.org/1999/xhtml" style="backdrop-filter:blur(37.37px);clip-path:url(#bgblur_5_5033_43798_clip_path);height:100%;width:100%"></div></foreignObject><g filter="url(#filter2_di_5033_43798)" data-figma-bg-blur-radius="74.7368">
<rect x="205.696" y="70.8421" width="44.8421" height="44.8421" rx="22.4211" transform="rotate(-90 205.696 70.8421)" fill="#1F6CFF" fill-opacity="0.1" shape-rendering="crispEdges"/>
<rect x="206.257" y="70.2816" width="43.7211" height="43.7211" rx="21.8605" transform="rotate(-90 206.257 70.2816)" stroke="url(#paint11_linear_5033_43798)" stroke-opacity="0.25" stroke-width="1.12105" shape-rendering="crispEdges"/>
<g clip-path="url(#clip6_5033_43798)">
<path d="M229.027 37.922L232.126 44.1999L239.056 45.2083C239.209 45.2304 239.353 45.2949 239.471 45.3945C239.589 45.4941 239.677 45.6248 239.725 45.7719C239.773 45.919 239.779 46.0765 239.742 46.2266C239.704 46.3768 239.626 46.5135 239.515 46.6214L234.5 51.5042L235.684 58.4059C235.71 58.5583 235.693 58.715 235.634 58.8583C235.576 59.0015 235.479 59.1256 235.354 59.2165C235.229 59.3075 235.081 59.3616 234.926 59.3727C234.772 59.3839 234.618 59.3517 234.481 59.2798L228.284 56.0262L222.086 59.2828C221.949 59.3544 221.794 59.3863 221.64 59.3749C221.486 59.3635 221.338 59.3093 221.213 59.2184C221.088 59.1274 220.991 59.0033 220.932 58.8601C220.874 58.7169 220.857 58.5603 220.883 58.4079L222.067 51.5101L217.051 46.6273C216.94 46.5195 216.862 46.3827 216.825 46.2326C216.788 46.0825 216.794 45.925 216.841 45.7779C216.889 45.6308 216.977 45.5001 217.096 45.4005C217.214 45.3009 217.358 45.2364 217.511 45.2143L224.44 44.2009L227.539 37.923C227.608 37.7843 227.714 37.6675 227.845 37.5859C227.977 37.5042 228.128 37.4608 228.283 37.4607C228.438 37.4606 228.589 37.5038 228.721 37.5853C228.852 37.6668 228.958 37.7834 229.027 37.922Z" fill="#1F6CFF" fill-opacity="0.6"/>
</g>
</g>
<foreignObject x="178.427" y="-44.8012" width="208.063" height="208.063"><div xmlns="http://www.w3.org/1999/xhtml" style="backdrop-filter:blur(37.37px);clip-path:url(#bgblur_7_5033_43798_clip_path);height:100%;width:100%"></div></foreignObject><g filter="url(#filter3_di_5033_43798)" data-figma-bg-blur-radius="74.7368">
<rect x="253.164" y="71.3643" width="44.8421" height="44.8421" rx="22.4211" transform="rotate(-67.5 253.164 71.3643)" fill="#1F6CFF" fill-opacity="0.1" shape-rendering="crispEdges"/>
<rect x="253.896" y="71.061" width="43.7211" height="43.721" rx="21.8605" transform="rotate(-67.5 253.896 71.061)" stroke="url(#paint12_linear_5033_43798)" stroke-opacity="0.25" stroke-width="1.12105" shape-rendering="crispEdges"/>
<g clip-path="url(#clip8_5033_43798)">
<path d="M286.704 50.0185L287.165 57.0045L293.181 60.588C293.314 60.667 293.422 60.7816 293.494 60.9189C293.565 61.0562 293.596 61.2107 293.584 61.3648C293.572 61.519 293.517 61.6667 293.425 61.7912C293.333 61.9157 293.209 62.012 293.065 62.0693L286.563 64.6611L285.015 71.4905C284.981 71.6413 284.905 71.7796 284.797 71.8896C284.688 71.9997 284.551 72.0771 284.4 72.1132C284.25 72.1493 284.093 72.1427 283.946 72.094C283.799 72.0452 283.669 71.9564 283.57 71.8376L279.089 66.4602L272.117 67.0969C271.963 67.1106 271.808 67.081 271.67 67.0115C271.532 66.942 271.416 66.8352 271.335 66.7034C271.254 66.5715 271.212 66.4197 271.213 66.2651C271.214 66.1104 271.258 65.9592 271.34 65.8283L275.074 59.9086L272.309 53.4782C272.248 53.3362 272.228 53.1798 272.251 53.0269C272.274 52.874 272.339 52.7307 272.44 52.6131C272.54 52.4955 272.672 52.4084 272.819 52.3617C272.966 52.3149 273.124 52.3104 273.274 52.3486L280.064 54.0641L285.329 49.4501C285.446 49.3482 285.588 49.2808 285.741 49.2557C285.894 49.2305 286.05 49.2485 286.193 49.3076C286.336 49.3667 286.46 49.4646 286.55 49.5902C286.641 49.7158 286.694 49.8641 286.704 50.0185Z" fill="#1F6CFF" fill-opacity="0.6"/>
</g>
</g>
<foreignObject x="222.081" y="-16.4332" width="212.89" height="212.89"><div xmlns="http://www.w3.org/1999/xhtml" style="backdrop-filter:blur(37.37px);clip-path:url(#bgblur_10_5033_43798_clip_path);height:100%;width:100%"></div></foreignObject><g filter="url(#filter4_i_5033_43798)" data-figma-bg-blur-radius="74.7368">
<g clip-path="url(#clip9_5033_43798)">
<rect x="296.818" y="90.0118" width="44.8421" height="44.8421" rx="22.4211" transform="rotate(-45 296.818 90.0118)" fill="#1F6CFF" fill-opacity="0.01"/>
<g clip-path="url(#clip11_5033_43798)">
<path d="M335.998 82.9102C336.033 82.9457 336.059 82.9905 336.07 83.0394C336.081 83.0875 336.079 83.1381 336.064 83.1851L336.063 83.1858L333.816 89.817L333.721 90.0952L333.897 90.3321L338.084 95.9454C338.114 95.9855 338.133 96.0331 338.137 96.0829C338.141 96.1326 338.131 96.1827 338.109 96.2272C338.086 96.2717 338.051 96.3091 338.008 96.3349C337.965 96.3606 337.916 96.3736 337.866 96.3729L330.867 96.279L330.572 96.2755L330.402 96.5165L326.358 102.233C326.33 102.274 326.29 102.307 326.244 102.326C326.198 102.345 326.147 102.352 326.097 102.344C326.048 102.336 326.002 102.314 325.964 102.281C325.926 102.248 325.898 102.206 325.883 102.158L323.801 95.4752L323.714 95.1941L323.433 95.1071L316.749 93.0273C316.701 93.0123 316.658 92.9843 316.625 92.9465C316.593 92.9086 316.571 92.8619 316.563 92.8125C316.555 92.763 316.561 92.7116 316.58 92.6654C316.6 92.6194 316.632 92.5798 316.673 92.5508L322.387 88.5105L322.628 88.3399L322.625 88.045L322.531 81.0458C322.53 80.996 322.543 80.9469 322.569 80.9042C322.595 80.8615 322.632 80.8261 322.676 80.8034C322.721 80.7808 322.771 80.7709 322.821 80.7751C322.871 80.7794 322.918 80.7983 322.958 80.8283L322.959 80.829L328.576 85.0122L328.812 85.1876L329.091 85.0937L335.721 82.846C335.768 82.8299 335.82 82.8277 335.868 82.8391C335.917 82.8505 335.962 82.8748 335.998 82.9102Z" stroke="#1F6CFF" stroke-opacity="0.6" stroke-width="1.12105"/>
</g>
</g>
<rect x="297.611" y="90.0118" width="43.7211" height="43.7211" rx="21.8605" transform="rotate(-45 297.611 90.0118)" stroke="url(#paint13_linear_5033_43798)" stroke-opacity="0.25" stroke-width="1.12105"/>
</g>
<path d="M61.6725 155.077L40.146 135.504C24.7296 121.486 0 132.424 0 153.261L0 205.044C0 225.833 24.6321 236.79 40.0716 222.868L64.2277 201.087C68.6367 197.112 74.3627 194.912 80.2993 194.912L115.204 194.912C124.48 194.912 132 187.392 132 178.116C132 168.84 124.48 161.32 115.204 161.32L77.8184 161.32C71.8472 161.32 66.0904 159.095 61.6725 155.077Z" fill="url(#paint14_linear_5033_43798)"/>
<foreignObject x="56" y="66" width="344" height="274"><div xmlns="http://www.w3.org/1999/xhtml" style="backdrop-filter:blur(50px);clip-path:url(#bgblur_12_5033_43798_clip_path);height:100%;width:100%"></div></foreignObject><g opacity="0.5" filter="url(#filter5_dii_5033_43798)" data-figma-bg-blur-radius="100">
<rect x="156" y="166" width="144" height="74" rx="16" fill="#1F6CFF" fill-opacity="0.02" shape-rendering="crispEdges"/>
<rect x="156" y="166" width="144" height="74" rx="16" fill="url(#paint15_linear_5033_43798)" fill-opacity="0.2" shape-rendering="crispEdges"/>
<rect x="156.75" y="166.75" width="142.5" height="72.5" rx="15.25" stroke="url(#paint16_linear_5033_43798)" stroke-opacity="0.5" stroke-width="1.5" shape-rendering="crispEdges"/>
</g>
<foreignObject x="44" y="54" width="368" height="274"><div xmlns="http://www.w3.org/1999/xhtml" style="backdrop-filter:blur(50px);clip-path:url(#bgblur_13_5033_43798_clip_path);height:100%;width:100%"></div></foreignObject><g filter="url(#filter6_dii_5033_43798)" data-figma-bg-blur-radius="100">
<rect x="144" y="154" width="168" height="74" rx="16" fill="#1F6CFF" fill-opacity="0.02" shape-rendering="crispEdges"/>
<rect x="144" y="154" width="168" height="74" rx="16" fill="url(#paint17_linear_5033_43798)" fill-opacity="0.2" shape-rendering="crispEdges"/>
<rect x="144.75" y="154.75" width="166.5" height="72.5" rx="15.25" stroke="url(#paint18_linear_5033_43798)" stroke-opacity="0.5" stroke-width="1.5" shape-rendering="crispEdges"/>
</g>
<rect opacity="0.75" x="156" y="166" width="28" height="4" rx="2" fill="#1F6CFF"/>
<rect opacity="0.25" x="156" y="174" width="107" height="4" rx="2" fill="#1F6CFF"/>
<rect opacity="0.25" x="156" y="182" width="73" height="4" rx="2" fill="#1F6CFF"/>
<path d="M394.328 155.077L415.854 135.504C431.27 121.486 456 132.424 456 153.261V205.044C456 225.833 431.368 236.79 415.928 222.868L391.772 201.087C387.363 197.112 381.637 194.912 375.701 194.912L340.796 194.912C331.52 194.912 324 187.392 324 178.116C324 168.84 331.52 161.32 340.796 161.32L378.182 161.32C384.153 161.32 389.91 159.095 394.328 155.077Z" fill="url(#paint19_linear_5033_43798)"/>
<foreignObject x="161" y="235" width="134" height="89"><div xmlns="http://www.w3.org/1999/xhtml" style="backdrop-filter:blur(12px);clip-path:url(#bgblur_15_5033_43798_clip_path);height:100%;width:100%"></div></foreignObject><g filter="url(#filter7_d_5033_43798)" data-figma-bg-blur-radius="24">
<g clip-path="url(#clip14_5033_43798)">
<rect x="185" y="259" width="86" height="24" rx="12" fill="#1F6CFF" fill-opacity="0.05" style="mix-blend-mode:luminosity" shape-rendering="crispEdges"/>
<foreignObject x="181" y="254" width="34" height="62"><div xmlns="http://www.w3.org/1999/xhtml" style="backdrop-filter:blur(6px);clip-path:url(#bgblur_16_5033_43798_clip_path);height:100%;width:100%"></div></foreignObject><g filter="url(#filter8_di_5033_43798)" data-figma-bg-blur-radius="12">
<rect x="193" y="266" width="10" height="10" rx="5" fill="#1F6CFF" fill-opacity="0.7" style="mix-blend-mode:luminosity" shape-rendering="crispEdges"/>
<rect x="193.75" y="266.75" width="8.5" height="8.5" rx="4.25" stroke="url(#paint20_linear_5033_43798)" stroke-opacity="0.25" stroke-width="1.5" shape-rendering="crispEdges"/>
</g>
<foreignObject x="199" y="251" width="40" height="68"><div xmlns="http://www.w3.org/1999/xhtml" style="backdrop-filter:blur(6px);clip-path:url(#bgblur_17_5033_43798_clip_path);height:100%;width:100%"></div></foreignObject><g filter="url(#filter9_di_5033_43798)" data-figma-bg-blur-radius="12">
<rect x="211" y="263" width="16" height="16" rx="8" fill="#1F6CFF" fill-opacity="0.7" style="mix-blend-mode:luminosity" shape-rendering="crispEdges"/>
<rect x="211.75" y="263.75" width="14.5" height="14.5" rx="7.25" stroke="url(#paint21_linear_5033_43798)" stroke-opacity="0.25" stroke-width="1.5" shape-rendering="crispEdges"/>
<ellipse cx="219" cy="271" rx="3" ry="3" transform="rotate(180 219 271)" fill="#1F6CFF"/>
</g>
<foreignObject x="223" y="254" width="34" height="62"><div xmlns="http://www.w3.org/1999/xhtml" style="backdrop-filter:blur(6px);clip-path:url(#bgblur_18_5033_43798_clip_path);height:100%;width:100%"></div></foreignObject><g filter="url(#filter10_di_5033_43798)" data-figma-bg-blur-radius="12">
<rect x="235" y="266" width="10" height="10" rx="5" fill="#1F6CFF" fill-opacity="0.7" style="mix-blend-mode:luminosity" shape-rendering="crispEdges"/>
<rect x="235.75" y="266.75" width="8.5" height="8.5" rx="4.25" stroke="url(#paint22_linear_5033_43798)" stroke-opacity="0.25" stroke-width="1.5" shape-rendering="crispEdges"/>
</g>
<foreignObject x="241" y="254" width="34" height="62"><div xmlns="http://www.w3.org/1999/xhtml" style="backdrop-filter:blur(6px);clip-path:url(#bgblur_19_5033_43798_clip_path);height:100%;width:100%"></div></foreignObject><g filter="url(#filter11_di_5033_43798)" data-figma-bg-blur-radius="12">
<rect x="253" y="266" width="10" height="10" rx="5" fill="#1F6CFF" fill-opacity="0.7" style="mix-blend-mode:luminosity" shape-rendering="crispEdges"/>
<rect x="253.75" y="266.75" width="8.5" height="8.5" rx="4.25" stroke="url(#paint23_linear_5033_43798)" stroke-opacity="0.25" stroke-width="1.5" shape-rendering="crispEdges"/>
</g>
</g>
<rect x="185.75" y="259.75" width="84.5" height="22.5" rx="11.25" stroke="url(#paint24_linear_5033_43798)" stroke-opacity="0.25" stroke-width="1.5" shape-rendering="crispEdges"/>
</g>
<ellipse opacity="0.5" cx="293.817" cy="163.817" rx="1.81706" ry="1.81706" fill="url(#paint25_linear_5033_43798)"/>
<ellipse opacity="0.5" cx="278.817" cy="153.817" rx="1.81706" ry="1.81706" fill="url(#paint26_linear_5033_43798)"/>
<ellipse opacity="0.5" cx="275.254" cy="231.274" rx="1.81706" ry="1.81706" fill="url(#paint27_linear_5033_43798)"/>
<circle opacity="0.5" cx="307" cy="247" r="4" fill="url(#paint28_linear_5033_43798)"/>
<circle opacity="0.5" cx="348" cy="180" r="4" fill="url(#paint29_linear_5033_43798)"/>
<circle opacity="0.5" cx="186" cy="197" r="2" fill="url(#paint30_linear_5033_43798)"/>
<ellipse opacity="0.5" cx="303.817" cy="186.817" rx="1.81706" ry="1.81706" fill="url(#paint31_linear_5033_43798)"/>
<ellipse cx="277.211" cy="179.211" rx="1.21137" ry="1.21137" fill="url(#paint32_linear_5033_43798)"/>
<ellipse cx="278.211" cy="194.211" rx="1.21137" ry="1.21137" fill="url(#paint33_linear_5033_43798)"/>
<ellipse cx="266.211" cy="214.211" rx="1.21137" ry="1.21137" fill="url(#paint34_linear_5033_43798)"/>
<ellipse cx="297.211" cy="234.211" rx="1.21137" ry="1.21137" fill="url(#paint35_linear_5033_43798)"/>
<ellipse cx="286.211" cy="216.211" rx="1.21137" ry="1.21137" fill="url(#paint36_linear_5033_43798)"/>
<ellipse cx="281.211" cy="201.211" rx="1.21137" ry="1.21137" fill="url(#paint37_linear_5033_43798)"/>
<ellipse cx="247.211" cy="236.211" rx="1.21137" ry="1.21137" fill="url(#paint38_linear_5033_43798)"/>
<circle cx="106" cy="64" r="1" fill="#1F6CFF"/>
<circle opacity="0.4" cx="125" cy="83" r="1" fill="#1F6CFF"/>
<circle opacity="0.2" cx="366" cy="224" r="1" fill="#1F6CFF"/>
<g filter="url(#filter12_f_5033_43798)">
<circle cx="106" cy="184" r="1" fill="#1F6CFF"/>
</g>
<circle cx="365.5" cy="43.5" r="0.5" fill="#1F6CFF"/>
<g filter="url(#filter13_f_5033_43798)">
<circle cx="385.5" cy="163.5" r="0.5" fill="#1F6CFF"/>
</g>
<defs>
<filter id="filter0_di_5033_43798" x="21.2632" y="-16.4332" width="212.89" height="212.89" filterUnits="userSpaceOnUse" color-interpolation-filters="sRGB">
<feFlood flood-opacity="0" result="BackgroundImageFix"/>
<feColorMatrix in="SourceAlpha" type="matrix" values="0 0 0 0 0 0 0 0 0 0 0 0 0 0 0 0 0 0 127 0" result="hardAlpha"/>
<feMorphology radius="2.98947" operator="erode" in="SourceAlpha" result="effect1_dropShadow_5033_43798"/>
<feOffset dy="8.22105"/>
<feGaussianBlur stdDeviation="5.64263"/>
<feComposite in2="hardAlpha" operator="out"/>
<feColorMatrix type="matrix" values="0 0 0 0 0.121569 0 0 0 0 0.423529 0 0 0 0 1 0 0 0 0.3 0"/>
<feBlend mode="normal" in2="BackgroundImageFix" result="effect1_dropShadow_5033_43798"/>
<feBlend mode="normal" in="SourceGraphic" in2="effect1_dropShadow_5033_43798" result="shape"/>
<feColorMatrix in="SourceAlpha" type="matrix" values="0 0 0 0 0 0 0 0 0 0 0 0 0 0 0 0 0 0 127 0" result="hardAlpha"/>
<feOffset dx="1.49474" dy="2.98947"/>
<feGaussianBlur stdDeviation="5.97895"/>
<feComposite in2="hardAlpha" operator="arithmetic" k2="-1" k3="1"/>
<feColorMatrix type="matrix" values="0 0 0 0 0.972549 0 0 0 0 0.972549 0 0 0 0 0.972549 0 0 0 0.06 0"/>
<feBlend mode="normal" in2="shape" result="effect2_innerShadow_5033_43798"/>
</filter>
<clipPath id="bgblur_1_5033_43798_clip_path" transform="translate(-21.2632 16.4332)"><rect x="127.708" y="121.72" width="44.8421" height="44.8421" rx="22.4211" transform="rotate(-135 127.708 121.72)"/>
</clipPath><filter id="filter1_di_5033_43798" x="69.7446" y="-44.8012" width="208.063" height="208.063" filterUnits="userSpaceOnUse" color-interpolation-filters="sRGB">
<feFlood flood-opacity="0" result="BackgroundImageFix"/>
<feColorMatrix in="SourceAlpha" type="matrix" values="0 0 0 0 0 0 0 0 0 0 0 0 0 0 0 0 0 0 127 0" result="hardAlpha"/>
<feMorphology radius="2.98947" operator="erode" in="SourceAlpha" result="effect1_dropShadow_5033_43798"/>
<feOffset dy="8.22105"/>
<feGaussianBlur stdDeviation="5.64263"/>
<feComposite in2="hardAlpha" operator="out"/>
<feColorMatrix type="matrix" values="0 0 0 0 0.121569 0 0 0 0 0.423529 0 0 0 0 1 0 0 0 0.3 0"/>
<feBlend mode="normal" in2="BackgroundImageFix" result="effect1_dropShadow_5033_43798"/>
<feBlend mode="normal" in="SourceGraphic" in2="effect1_dropShadow_5033_43798" result="shape"/>
<feColorMatrix in="SourceAlpha" type="matrix" values="0 0 0 0 0 0 0 0 0 0 0 0 0 0 0 0 0 0 127 0" result="hardAlpha"/>
<feOffset dx="1.49474" dy="2.98947"/>
<feGaussianBlur stdDeviation="5.97895"/>
<feComposite in2="hardAlpha" operator="arithmetic" k2="-1" k3="1"/>
<feColorMatrix type="matrix" values="0 0 0 0 0.972549 0 0 0 0 0.972549 0 0 0 0 0.972549 0 0 0 0.06 0"/>
<feBlend mode="normal" in2="shape" result="effect2_innerShadow_5033_43798"/>
</filter>
<clipPath id="bgblur_3_5033_43798_clip_path" transform="translate(-69.7446 44.8012)"><rect x="161.642" y="88.5247" width="44.8421" height="44.8421" rx="22.4211" transform="rotate(-112.5 161.642 88.5247)"/>
</clipPath><filter id="filter2_di_5033_43798" x="130.959" y="-48.7368" width="194.316" height="194.316" filterUnits="userSpaceOnUse" color-interpolation-filters="sRGB">
<feFlood flood-opacity="0" result="BackgroundImageFix"/>
<feColorMatrix in="SourceAlpha" type="matrix" values="0 0 0 0 0 0 0 0 0 0 0 0 0 0 0 0 0 0 127 0" result="hardAlpha"/>
<feMorphology radius="2.98947" operator="erode" in="SourceAlpha" result="effect1_dropShadow_5033_43798"/>
<feOffset dy="8.22105"/>
<feGaussianBlur stdDeviation="5.64263"/>
<feComposite in2="hardAlpha" operator="out"/>
<feColorMatrix type="matrix" values="0 0 0 0 0.121569 0 0 0 0 0.423529 0 0 0 0 1 0 0 0 0.3 0"/>
<feBlend mode="normal" in2="BackgroundImageFix" result="effect1_dropShadow_5033_43798"/>
<feBlend mode="normal" in="SourceGraphic" in2="effect1_dropShadow_5033_43798" result="shape"/>
<feColorMatrix in="SourceAlpha" type="matrix" values="0 0 0 0 0 0 0 0 0 0 0 0 0 0 0 0 0 0 127 0" result="hardAlpha"/>
<feOffset dx="1.49474" dy="2.98947"/>
<feGaussianBlur stdDeviation="5.97895"/>
<feComposite in2="hardAlpha" operator="arithmetic" k2="-1" k3="1"/>
<feColorMatrix type="matrix" values="0 0 0 0 0.972549 0 0 0 0 0.972549 0 0 0 0 0.972549 0 0 0 0.06 0"/>
<feBlend mode="normal" in2="shape" result="effect2_innerShadow_5033_43798"/>
</filter>
<clipPath id="bgblur_5_5033_43798_clip_path" transform="translate(-130.959 48.7368)"><rect x="205.696" y="70.8421" width="44.8421" height="44.8421" rx="22.4211" transform="rotate(-90 205.696 70.8421)"/>
</clipPath><filter id="filter3_di_5033_43798" x="178.427" y="-44.8012" width="208.063" height="208.063" filterUnits="userSpaceOnUse" color-interpolation-filters="sRGB">
<feFlood flood-opacity="0" result="BackgroundImageFix"/>
<feColorMatrix in="SourceAlpha" type="matrix" values="0 0 0 0 0 0 0 0 0 0 0 0 0 0 0 0 0 0 127 0" result="hardAlpha"/>
<feMorphology radius="2.98947" operator="erode" in="SourceAlpha" result="effect1_dropShadow_5033_43798"/>
<feOffset dy="8.22105"/>
<feGaussianBlur stdDeviation="5.64263"/>
<feComposite in2="hardAlpha" operator="out"/>
<feColorMatrix type="matrix" values="0 0 0 0 0.121569 0 0 0 0 0.423529 0 0 0 0 1 0 0 0 0.3 0"/>
<feBlend mode="normal" in2="BackgroundImageFix" result="effect1_dropShadow_5033_43798"/>
<feBlend mode="normal" in="SourceGraphic" in2="effect1_dropShadow_5033_43798" result="shape"/>
<feColorMatrix in="SourceAlpha" type="matrix" values="0 0 0 0 0 0 0 0 0 0 0 0 0 0 0 0 0 0 127 0" result="hardAlpha"/>
<feOffset dx="1.49474" dy="2.98947"/>
<feGaussianBlur stdDeviation="5.97895"/>
<feComposite in2="hardAlpha" operator="arithmetic" k2="-1" k3="1"/>
<feColorMatrix type="matrix" values="0 0 0 0 0.972549 0 0 0 0 0.972549 0 0 0 0 0.972549 0 0 0 0.06 0"/>
<feBlend mode="normal" in2="shape" result="effect2_innerShadow_5033_43798"/>
</filter>
<clipPath id="bgblur_7_5033_43798_clip_path" transform="translate(-178.427 44.8012)"><rect x="253.164" y="71.3643" width="44.8421" height="44.8421" rx="22.4211" transform="rotate(-67.5 253.164 71.3643)"/>
</clipPath><filter id="filter4_i_5033_43798" x="222.081" y="-16.4332" width="212.89" height="212.89" filterUnits="userSpaceOnUse" color-interpolation-filters="sRGB">
<feFlood flood-opacity="0" result="BackgroundImageFix"/>
<feBlend mode="normal" in="SourceGraphic" in2="BackgroundImageFix" result="shape"/>
<feColorMatrix in="SourceAlpha" type="matrix" values="0 0 0 0 0 0 0 0 0 0 0 0 0 0 0 0 0 0 127 0" result="hardAlpha"/>
<feOffset dx="1.49474" dy="2.98947"/>
<feGaussianBlur stdDeviation="5.97895"/>
<feComposite in2="hardAlpha" operator="arithmetic" k2="-1" k3="1"/>
<feColorMatrix type="matrix" values="0 0 0 0 0.972549 0 0 0 0 0.972549 0 0 0 0 0.972549 0 0 0 0.06 0"/>
<feBlend mode="normal" in2="shape" result="effect1_innerShadow_5033_43798"/>
</filter>
<clipPath id="bgblur_10_5033_43798_clip_path" transform="translate(-222.081 16.4332)"><rect x="296.818" y="90.0118" width="44.8421" height="44.8421" rx="22.4211" transform="rotate(-45 296.818 90.0118)"/>
</clipPath><filter id="filter5_dii_5033_43798" x="56" y="66" width="344" height="274" filterUnits="userSpaceOnUse" color-interpolation-filters="sRGB">
<feFlood flood-opacity="0" result="BackgroundImageFix"/>
<feColorMatrix in="SourceAlpha" type="matrix" values="0 0 0 0 0 0 0 0 0 0 0 0 0 0 0 0 0 0 127 0" result="hardAlpha"/>
<feMorphology radius="7" operator="erode" in="SourceAlpha" result="effect1_dropShadow_5033_43798"/>
<feOffset dy="16"/>
<feGaussianBlur stdDeviation="6"/>
<feComposite in2="hardAlpha" operator="out"/>
<feColorMatrix type="matrix" values="0 0 0 0 0.121569 0 0 0 0 0.423529 0 0 0 0 1 0 0 0 0.2 0"/>
<feBlend mode="normal" in2="BackgroundImageFix" result="effect1_dropShadow_5033_43798"/>
<feBlend mode="normal" in="SourceGraphic" in2="effect1_dropShadow_5033_43798" result="shape"/>
<feColorMatrix in="SourceAlpha" type="matrix" values="0 0 0 0 0 0 0 0 0 0 0 0 0 0 0 0 0 0 127 0" result="hardAlpha"/>
<feOffset/>
<feGaussianBlur stdDeviation="4"/>
<feComposite in2="hardAlpha" operator="arithmetic" k2="-1" k3="1"/>
<feColorMatrix type="matrix" values="0 0 0 0 0.121569 0 0 0 0 0.423529 0 0 0 0 1 0 0 0 1 0"/>
<feBlend mode="multiply" in2="shape" result="effect2_innerShadow_5033_43798"/>
<feColorMatrix in="SourceAlpha" type="matrix" values="0 0 0 0 0 0 0 0 0 0 0 0 0 0 0 0 0 0 127 0" result="hardAlpha"/>
<feOffset/>
<feGaussianBlur stdDeviation="4"/>
<feComposite in2="hardAlpha" operator="arithmetic" k2="-1" k3="1"/>
<feColorMatrix type="matrix" values="0 0 0 0 0.121569 0 0 0 0 0.423529 0 0 0 0 1 0 0 0 0.1 0"/>
<feBlend mode="normal" in2="effect2_innerShadow_5033_43798" result="effect3_innerShadow_5033_43798"/>
</filter>
<clipPath id="bgblur_12_5033_43798_clip_path" transform="translate(-56 -66)"><rect x="156" y="166" width="144" height="74" rx="16"/>
</clipPath><filter id="filter6_dii_5033_43798" x="44" y="54" width="368" height="274" filterUnits="userSpaceOnUse" color-interpolation-filters="sRGB">
<feFlood flood-opacity="0" result="BackgroundImageFix"/>
<feColorMatrix in="SourceAlpha" type="matrix" values="0 0 0 0 0 0 0 0 0 0 0 0 0 0 0 0 0 0 127 0" result="hardAlpha"/>
<feMorphology radius="7" operator="erode" in="SourceAlpha" result="effect1_dropShadow_5033_43798"/>
<feOffset dy="16"/>
<feGaussianBlur stdDeviation="6"/>
<feComposite in2="hardAlpha" operator="out"/>
<feColorMatrix type="matrix" values="0 0 0 0 0.121569 0 0 0 0 0.423529 0 0 0 0 1 0 0 0 0.2 0"/>
<feBlend mode="normal" in2="BackgroundImageFix" result="effect1_dropShadow_5033_43798"/>
<feBlend mode="normal" in="SourceGraphic" in2="effect1_dropShadow_5033_43798" result="shape"/>
<feColorMatrix in="SourceAlpha" type="matrix" values="0 0 0 0 0 0 0 0 0 0 0 0 0 0 0 0 0 0 127 0" result="hardAlpha"/>
<feOffset/>
<feGaussianBlur stdDeviation="4"/>
<feComposite in2="hardAlpha" operator="arithmetic" k2="-1" k3="1"/>
<feColorMatrix type="matrix" values="0 0 0 0 0.121569 0 0 0 0 0.423529 0 0 0 0 1 0 0 0 1 0"/>
<feBlend mode="multiply" in2="shape" result="effect2_innerShadow_5033_43798"/>
<feColorMatrix in="SourceAlpha" type="matrix" values="0 0 0 0 0 0 0 0 0 0 0 0 0 0 0 0 0 0 127 0" result="hardAlpha"/>
<feOffset/>
<feGaussianBlur stdDeviation="4"/>
<feComposite in2="hardAlpha" operator="arithmetic" k2="-1" k3="1"/>
<feColorMatrix type="matrix" values="0 0 0 0 0.121569 0 0 0 0 0.423529 0 0 0 0 1 0 0 0 0.1 0"/>
<feBlend mode="normal" in2="effect2_innerShadow_5033_43798" result="effect3_innerShadow_5033_43798"/>
</filter>
<clipPath id="bgblur_13_5033_43798_clip_path" transform="translate(-44 -54)"><rect x="144" y="154" width="168" height="74" rx="16"/>
</clipPath><filter id="filter7_d_5033_43798" x="161" y="235" width="134" height="89" filterUnits="userSpaceOnUse" color-interpolation-filters="sRGB">
<feFlood flood-opacity="0" result="BackgroundImageFix"/>
<feColorMatrix in="SourceAlpha" type="matrix" values="0 0 0 0 0 0 0 0 0 0 0 0 0 0 0 0 0 0 127 0" result="hardAlpha"/>
<feMorphology radius="7" operator="erode" in="SourceAlpha" result="effect1_dropShadow_5033_43798"/>
<feOffset dy="24"/>
<feGaussianBlur stdDeviation="12"/>
<feComposite in2="hardAlpha" operator="out"/>
<feColorMatrix type="matrix" values="0 0 0 0 0.121569 0 0 0 0 0.423529 0 0 0 0 1 0 0 0 0.3 0"/>
<feBlend mode="multiply" in2="BackgroundImageFix" result="effect1_dropShadow_5033_43798"/>
<feBlend mode="normal" in="SourceGraphic" in2="effect1_dropShadow_5033_43798" result="shape"/>
</filter>
<clipPath id="bgblur_15_5033_43798_clip_path" transform="translate(-161 -235)"><rect x="185" y="259" width="86" height="24" rx="12"/>
</clipPath><filter id="filter8_di_5033_43798" x="181" y="254" width="34" height="62" filterUnits="userSpaceOnUse" color-interpolation-filters="sRGB">
<feFlood flood-opacity="0" result="BackgroundImageFix"/>
<feColorMatrix in="SourceAlpha" type="matrix" values="0 0 0 0 0 0 0 0 0 0 0 0 0 0 0 0 0 0 127 0" result="hardAlpha"/>
<feMorphology radius="16" operator="erode" in="SourceAlpha" result="effect1_dropShadow_5033_43798"/>
<feOffset dy="32"/>
<feGaussianBlur stdDeviation="12"/>
<feComposite in2="hardAlpha" operator="out"/>
<feColorMatrix type="matrix" values="0 0 0 0 0 0 0 0 0 0 0 0 0 0 0 0 0 0 0.4 0"/>
<feBlend mode="multiply" in2="BackgroundImageFix" result="effect1_dropShadow_5033_43798"/>
<feBlend mode="normal" in="SourceGraphic" in2="effect1_dropShadow_5033_43798" result="shape"/>
<feColorMatrix in="SourceAlpha" type="matrix" values="0 0 0 0 0 0 0 0 0 0 0 0 0 0 0 0 0 0 127 0" result="hardAlpha"/>
<feOffset/>
<feGaussianBlur stdDeviation="4"/>
<feComposite in2="hardAlpha" operator="arithmetic" k2="-1" k3="1"/>
<feColorMatrix type="matrix" values="0 0 0 0 0.972549 0 0 0 0 0.972549 0 0 0 0 0.972549 0 0 0 0.25 0"/>
<feBlend mode="normal" in2="shape" result="effect2_innerShadow_5033_43798"/>
</filter>
<clipPath id="bgblur_16_5033_43798_clip_path" transform="translate(-181 -254)"><rect x="193" y="266" width="10" height="10" rx="5"/>
</clipPath><filter id="filter9_di_5033_43798" x="199" y="251" width="40" height="68" filterUnits="userSpaceOnUse" color-interpolation-filters="sRGB">
<feFlood flood-opacity="0" result="BackgroundImageFix"/>
<feColorMatrix in="SourceAlpha" type="matrix" values="0 0 0 0 0 0 0 0 0 0 0 0 0 0 0 0 0 0 127 0" result="hardAlpha"/>
<feMorphology radius="16" operator="erode" in="SourceAlpha" result="effect1_dropShadow_5033_43798"/>
<feOffset dy="32"/>
<feGaussianBlur stdDeviation="12"/>
<feComposite in2="hardAlpha" operator="out"/>
<feColorMatrix type="matrix" values="0 0 0 0 0 0 0 0 0 0 0 0 0 0 0 0 0 0 0.4 0"/>
<feBlend mode="multiply" in2="BackgroundImageFix" result="effect1_dropShadow_5033_43798"/>
<feBlend mode="normal" in="SourceGraphic" in2="effect1_dropShadow_5033_43798" result="shape"/>
<feColorMatrix in="SourceAlpha" type="matrix" values="0 0 0 0 0 0 0 0 0 0 0 0 0 0 0 0 0 0 127 0" result="hardAlpha"/>
<feOffset/>
<feGaussianBlur stdDeviation="4"/>
<feComposite in2="hardAlpha" operator="arithmetic" k2="-1" k3="1"/>
<feColorMatrix type="matrix" values="0 0 0 0 0.972549 0 0 0 0 0.972549 0 0 0 0 0.972549 0 0 0 0.25 0"/>
<feBlend mode="normal" in2="shape" result="effect2_innerShadow_5033_43798"/>
</filter>
<clipPath id="bgblur_17_5033_43798_clip_path" transform="translate(-199 -251)"><rect x="211" y="263" width="16" height="16" rx="8"/>
</clipPath><filter id="filter10_di_5033_43798" x="223" y="254" width="34" height="62" filterUnits="userSpaceOnUse" color-interpolation-filters="sRGB">
<feFlood flood-opacity="0" result="BackgroundImageFix"/>
<feColorMatrix in="SourceAlpha" type="matrix" values="0 0 0 0 0 0 0 0 0 0 0 0 0 0 0 0 0 0 127 0" result="hardAlpha"/>
<feMorphology radius="16" operator="erode" in="SourceAlpha" result="effect1_dropShadow_5033_43798"/>
<feOffset dy="32"/>
<feGaussianBlur stdDeviation="12"/>
<feComposite in2="hardAlpha" operator="out"/>
<feColorMatrix type="matrix" values="0 0 0 0 0 0 0 0 0 0 0 0 0 0 0 0 0 0 0.4 0"/>
<feBlend mode="multiply" in2="BackgroundImageFix" result="effect1_dropShadow_5033_43798"/>
<feBlend mode="normal" in="SourceGraphic" in2="effect1_dropShadow_5033_43798" result="shape"/>
<feColorMatrix in="SourceAlpha" type="matrix" values="0 0 0 0 0 0 0 0 0 0 0 0 0 0 0 0 0 0 127 0" result="hardAlpha"/>
<feOffset/>
<feGaussianBlur stdDeviation="4"/>
<feComposite in2="hardAlpha" operator="arithmetic" k2="-1" k3="1"/>
<feColorMatrix type="matrix" values="0 0 0 0 0.972549 0 0 0 0 0.972549 0 0 0 0 0.972549 0 0 0 0.25 0"/>
<feBlend mode="normal" in2="shape" result="effect2_innerShadow_5033_43798"/>
</filter>
<clipPath id="bgblur_18_5033_43798_clip_path" transform="translate(-223 -254)"><rect x="235" y="266" width="10" height="10" rx="5"/>
</clipPath><filter id="filter11_di_5033_43798" x="241" y="254" width="34" height="62" filterUnits="userSpaceOnUse" color-interpolation-filters="sRGB">
<feFlood flood-opacity="0" result="BackgroundImageFix"/>
<feColorMatrix in="SourceAlpha" type="matrix" values="0 0 0 0 0 0 0 0 0 0 0 0 0 0 0 0 0 0 127 0" result="hardAlpha"/>
<feMorphology radius="16" operator="erode" in="SourceAlpha" result="effect1_dropShadow_5033_43798"/>
<feOffset dy="32"/>
<feGaussianBlur stdDeviation="12"/>
<feComposite in2="hardAlpha" operator="out"/>
<feColorMatrix type="matrix" values="0 0 0 0 0 0 0 0 0 0 0 0 0 0 0 0 0 0 0.4 0"/>
<feBlend mode="multiply" in2="BackgroundImageFix" result="effect1_dropShadow_5033_43798"/>
<feBlend mode="normal" in="SourceGraphic" in2="effect1_dropShadow_5033_43798" result="shape"/>
<feColorMatrix in="SourceAlpha" type="matrix" values="0 0 0 0 0 0 0 0 0 0 0 0 0 0 0 0 0 0 127 0" result="hardAlpha"/>
<feOffset/>
<feGaussianBlur stdDeviation="4"/>
<feComposite in2="hardAlpha" operator="arithmetic" k2="-1" k3="1"/>
<feColorMatrix type="matrix" values="0 0 0 0 0.972549 0 0 0 0 0.972549 0 0 0 0 0.972549 0 0 0 0.25 0"/>
<feBlend mode="normal" in2="shape" result="effect2_innerShadow_5033_43798"/>
</filter>
<clipPath id="bgblur_19_5033_43798_clip_path" transform="translate(-241 -254)"><rect x="253" y="266" width="10" height="10" rx="5"/>
</clipPath><filter id="filter12_f_5033_43798" x="101" y="179" width="10" height="10" filterUnits="userSpaceOnUse" color-interpolation-filters="sRGB">
<feFlood flood-opacity="0" result="BackgroundImageFix"/>
<feBlend mode="normal" in="SourceGraphic" in2="BackgroundImageFix" result="shape"/>
<feGaussianBlur stdDeviation="2" result="effect1_foregroundBlur_5033_43798"/>
</filter>
<filter id="filter13_f_5033_43798" x="381" y="159" width="9" height="9" filterUnits="userSpaceOnUse" color-interpolation-filters="sRGB">
<feFlood flood-opacity="0" result="BackgroundImageFix"/>
<feBlend mode="normal" in="SourceGraphic" in2="BackgroundImageFix" result="shape"/>
<feGaussianBlur stdDeviation="2" result="effect1_foregroundBlur_5033_43798"/>
</filter>
<linearGradient id="paint0_linear_5033_43798" x1="228" y1="48.4211" x2="228" y2="332.421" gradientUnits="userSpaceOnUse">
<stop stop-color="#1F6CFF" stop-opacity="0.1"/>
<stop offset="0.275" stop-color="#1F6CFF" stop-opacity="0"/>
</linearGradient>
<linearGradient id="paint1_linear_5033_43798" x1="228" y1="48.4211" x2="228" y2="332.421" gradientUnits="userSpaceOnUse">
<stop stop-color="#F8F8F8" stop-opacity="0.1"/>
<stop offset="0.504592" stop-color="#F8F8F8" stop-opacity="0"/>
</linearGradient>
<linearGradient id="paint2_linear_5033_43798" x1="228" y1="48.4211" x2="228" y2="332.421" gradientUnits="userSpaceOnUse">
<stop stop-color="#1F6CFF"/>
<stop offset="0.138686" stop-color="#1F6CFF" stop-opacity="0"/>
</linearGradient>
<linearGradient id="paint3_linear_5033_43798" x1="230.5" y1="87" x2="230.5" y2="298" gradientUnits="userSpaceOnUse">
<stop stop-color="#1F6CFF" stop-opacity="0.1"/>
<stop offset="0.275" stop-color="#1F6CFF" stop-opacity="0"/>
</linearGradient>
<linearGradient id="paint4_linear_5033_43798" x1="230.5" y1="87" x2="230.5" y2="298" gradientUnits="userSpaceOnUse">
<stop stop-color="#F8F8F8" stop-opacity="0.1"/>
<stop offset="0.176812" stop-color="#F8F8F8" stop-opacity="0"/>
</linearGradient>
<linearGradient id="paint5_linear_5033_43798" x1="230.5" y1="78.5735" x2="230.5" y2="298" gradientUnits="userSpaceOnUse">
<stop stop-color="#1F6CFF"/>
<stop offset="0.0615156" stop-color="#1F6CFF" stop-opacity="0"/>
</linearGradient>
<linearGradient id="paint6_linear_5033_43798" x1="230" y1="119" x2="230" y2="267" gradientUnits="userSpaceOnUse">
<stop stop-color="#1F6CFF" stop-opacity="0.1"/>
<stop offset="0.275" stop-color="#1F6CFF" stop-opacity="0"/>
</linearGradient>
<linearGradient id="paint7_linear_5033_43798" x1="230" y1="119" x2="230" y2="267" gradientUnits="userSpaceOnUse">
<stop stop-color="#1F6CFF" stop-opacity="0.1"/>
<stop offset="0.256941" stop-color="#1F6CFF" stop-opacity="0"/>
</linearGradient>
<linearGradient id="paint8_linear_5033_43798" x1="230" y1="119" x2="230" y2="267" gradientUnits="userSpaceOnUse">
<stop stop-color="#1F6CFF"/>
<stop offset="0.0615156" stop-color="#1F6CFF" stop-opacity="0"/>
</linearGradient>
<linearGradient id="paint9_linear_5033_43798" x1="150.129" y1="121.72" x2="169.637" y2="170.962" gradientUnits="userSpaceOnUse">
<stop stop-opacity="0.4"/>
<stop offset="0.4" stop-opacity="0.01"/>
<stop offset="0.6" stop-opacity="0.01"/>
<stop offset="1" stop-opacity="0.1"/>
</linearGradient>
<linearGradient id="paint10_linear_5033_43798" x1="184.063" y1="88.5247" x2="203.57" y2="137.767" gradientUnits="userSpaceOnUse">
<stop stop-opacity="0.4"/>
<stop offset="0.4" stop-opacity="0.01"/>
<stop offset="0.6" stop-opacity="0.01"/>
<stop offset="1" stop-opacity="0.1"/>
</linearGradient>
<linearGradient id="paint11_linear_5033_43798" x1="228.117" y1="70.8421" x2="247.624" y2="120.084" gradientUnits="userSpaceOnUse">
<stop stop-opacity="0.4"/>
<stop offset="0.4" stop-opacity="0.01"/>
<stop offset="0.6" stop-opacity="0.01"/>
<stop offset="1" stop-opacity="0.1"/>
</linearGradient>
<linearGradient id="paint12_linear_5033_43798" x1="275.585" y1="71.3643" x2="295.092" y2="120.606" gradientUnits="userSpaceOnUse">
<stop stop-opacity="0.4"/>
<stop offset="0.4" stop-opacity="0.01"/>
<stop offset="0.6" stop-opacity="0.01"/>
<stop offset="1" stop-opacity="0.1"/>
</linearGradient>
<linearGradient id="paint13_linear_5033_43798" x1="319.239" y1="90.0118" x2="338.746" y2="139.254" gradientUnits="userSpaceOnUse">
<stop stop-opacity="0.4"/>
<stop offset="0.4" stop-opacity="0.01"/>
<stop offset="0.6" stop-opacity="0.01"/>
<stop offset="1" stop-opacity="0.1"/>
</linearGradient>
<linearGradient id="paint14_linear_5033_43798" x1="-1.68223e-09" y1="179.442" x2="131.998" y2="178.292" gradientUnits="userSpaceOnUse">
<stop stop-color="#1F6CFF" stop-opacity="0"/>
<stop offset="0.54342" stop-color="#1F6CFF" stop-opacity="0.05"/>
<stop offset="1" stop-color="#1F6CFF" stop-opacity="0"/>
</linearGradient>
<linearGradient id="paint15_linear_5033_43798" x1="156" y1="166" x2="146.752" y2="300.495" gradientUnits="userSpaceOnUse">
<stop stop-color="#1F6CFF" stop-opacity="0.4"/>
<stop offset="1" stop-color="#1F6CFF" stop-opacity="0"/>
</linearGradient>
<linearGradient id="paint16_linear_5033_43798" x1="228" y1="203" x2="145.362" y2="137.043" gradientUnits="userSpaceOnUse">
<stop stop-color="#1F6CFF" stop-opacity="0"/>
<stop offset="1" stop-color="#1F6CFF" stop-opacity="0.5"/>
</linearGradient>
<linearGradient id="paint17_linear_5033_43798" x1="144" y1="154" x2="136.063" y2="288.663" gradientUnits="userSpaceOnUse">
<stop stop-color="#1F6CFF" stop-opacity="0.4"/>
<stop offset="1" stop-color="#1F6CFF" stop-opacity="0"/>
</linearGradient>
<linearGradient id="paint18_linear_5033_43798" x1="228" y1="191" x2="143.467" y2="112.286" gradientUnits="userSpaceOnUse">
<stop stop-color="#1F6CFF" stop-opacity="0"/>
<stop offset="1" stop-color="#1F6CFF" stop-opacity="0.5"/>
</linearGradient>
<linearGradient id="paint19_linear_5033_43798" x1="456" y1="179.442" x2="324.002" y2="178.292" gradientUnits="userSpaceOnUse">
<stop stop-color="#1F6CFF" stop-opacity="0"/>
<stop offset="0.54342" stop-color="#1F6CFF" stop-opacity="0.05"/>
<stop offset="1" stop-color="#1F6CFF" stop-opacity="0"/>
</linearGradient>
<linearGradient id="paint20_linear_5033_43798" x1="198" y1="266" x2="202.35" y2="276.981" gradientUnits="userSpaceOnUse">
<stop stop-opacity="0.4"/>
<stop offset="0.4" stop-opacity="0.01"/>
<stop offset="0.6" stop-opacity="0.01"/>
<stop offset="1" stop-opacity="0.1"/>
</linearGradient>
<linearGradient id="paint21_linear_5033_43798" x1="219" y1="263" x2="225.96" y2="280.57" gradientUnits="userSpaceOnUse">
<stop stop-opacity="0.4"/>
<stop offset="0.4" stop-opacity="0.01"/>
<stop offset="0.6" stop-opacity="0.01"/>
<stop offset="1" stop-opacity="0.1"/>
</linearGradient>
<linearGradient id="paint22_linear_5033_43798" x1="240" y1="266" x2="244.35" y2="276.981" gradientUnits="userSpaceOnUse">
<stop stop-opacity="0.4"/>
<stop offset="0.4" stop-opacity="0.01"/>
<stop offset="0.6" stop-opacity="0.01"/>
<stop offset="1" stop-opacity="0.1"/>
</linearGradient>
<linearGradient id="paint23_linear_5033_43798" x1="258" y1="266" x2="262.35" y2="276.981" gradientUnits="userSpaceOnUse">
<stop stop-opacity="0.4"/>
<stop offset="0.4" stop-opacity="0.01"/>
<stop offset="0.6" stop-opacity="0.01"/>
<stop offset="1" stop-opacity="0.1"/>
</linearGradient>
<linearGradient id="paint24_linear_5033_43798" x1="228" y1="259" x2="231.33" y2="289.123" gradientUnits="userSpaceOnUse">
<stop stop-opacity="0.4"/>
<stop offset="0.4" stop-opacity="0.01"/>
<stop offset="0.6" stop-opacity="0.01"/>
<stop offset="1" stop-opacity="0.1"/>
</linearGradient>
<linearGradient id="paint25_linear_5033_43798" x1="295.028" y1="162" x2="292" y2="166.24" gradientUnits="userSpaceOnUse">
<stop stop-color="#1F6CFF" stop-opacity="0.3"/>
<stop offset="0.826694" stop-color="#1F6CFF" stop-opacity="0"/>
</linearGradient>
<linearGradient id="paint26_linear_5033_43798" x1="280.028" y1="152" x2="277" y2="156.24" gradientUnits="userSpaceOnUse">
<stop stop-color="#1F6CFF" stop-opacity="0.3"/>
<stop offset="0.826694" stop-color="#1F6CFF" stop-opacity="0"/>
</linearGradient>
<linearGradient id="paint27_linear_5033_43798" x1="276.465" y1="229.457" x2="273.437" y2="233.696" gradientUnits="userSpaceOnUse">
<stop stop-color="#1F6CFF" stop-opacity="0.3"/>
<stop offset="0.826694" stop-color="#1F6CFF" stop-opacity="0"/>
</linearGradient>
<linearGradient id="paint28_linear_5033_43798" x1="309.667" y1="243" x2="303" y2="252.333" gradientUnits="userSpaceOnUse">
<stop stop-color="#1F6CFF" stop-opacity="0.3"/>
<stop offset="0.826694" stop-color="#1F6CFF" stop-opacity="0"/>
</linearGradient>
<linearGradient id="paint29_linear_5033_43798" x1="350.667" y1="176" x2="344" y2="185.333" gradientUnits="userSpaceOnUse">
<stop stop-color="#1F6CFF" stop-opacity="0.3"/>
<stop offset="0.826694" stop-color="#1F6CFF" stop-opacity="0"/>
</linearGradient>
<linearGradient id="paint30_linear_5033_43798" x1="187.333" y1="195" x2="184" y2="199.667" gradientUnits="userSpaceOnUse">
<stop stop-color="#1F6CFF" stop-opacity="0.3"/>
<stop offset="0.826694" stop-color="#1F6CFF" stop-opacity="0"/>
</linearGradient>
<linearGradient id="paint31_linear_5033_43798" x1="305.028" y1="185" x2="302" y2="189.24" gradientUnits="userSpaceOnUse">
<stop stop-color="#1F6CFF" stop-opacity="0.3"/>
<stop offset="0.826694" stop-color="#1F6CFF" stop-opacity="0"/>
</linearGradient>
<linearGradient id="paint32_linear_5033_43798" x1="278.019" y1="177.192" x2="276.606" y2="180.221" gradientUnits="userSpaceOnUse">
<stop stop-color="#1F6CFF" stop-opacity="0.3"/>
<stop offset="0.826694" stop-color="#1F6CFF" stop-opacity="0"/>
</linearGradient>
<linearGradient id="paint33_linear_5033_43798" x1="279.019" y1="192.192" x2="277.606" y2="195.221" gradientUnits="userSpaceOnUse">
<stop stop-color="#1F6CFF" stop-opacity="0.3"/>
<stop offset="0.826694" stop-color="#1F6CFF" stop-opacity="0"/>
</linearGradient>
<linearGradient id="paint34_linear_5033_43798" x1="267.019" y1="212.192" x2="265.606" y2="215.221" gradientUnits="userSpaceOnUse">
<stop stop-color="#1F6CFF" stop-opacity="0.3"/>
<stop offset="0.826694" stop-color="#1F6CFF" stop-opacity="0"/>
</linearGradient>
<linearGradient id="paint35_linear_5033_43798" x1="298.019" y1="232.192" x2="296.606" y2="235.221" gradientUnits="userSpaceOnUse">
<stop stop-color="#1F6CFF" stop-opacity="0.3"/>
<stop offset="0.826694" stop-color="#1F6CFF" stop-opacity="0"/>
</linearGradient>
<linearGradient id="paint36_linear_5033_43798" x1="287.019" y1="214.192" x2="285.606" y2="217.221" gradientUnits="userSpaceOnUse">
<stop stop-color="#1F6CFF" stop-opacity="0.3"/>
<stop offset="0.826694" stop-color="#1F6CFF" stop-opacity="0"/>
</linearGradient>
<linearGradient id="paint37_linear_5033_43798" x1="282.019" y1="199.192" x2="280.606" y2="202.221" gradientUnits="userSpaceOnUse">
<stop stop-color="#1F6CFF" stop-opacity="0.3"/>
<stop offset="0.826694" stop-color="#1F6CFF" stop-opacity="0"/>
</linearGradient>
<linearGradient id="paint38_linear_5033_43798" x1="248.019" y1="234.192" x2="246.606" y2="237.221" gradientUnits="userSpaceOnUse">
<stop stop-color="#1F6CFF" stop-opacity="0.3"/>
<stop offset="0.826694" stop-color="#1F6CFF" stop-opacity="0"/>
</linearGradient>
<clipPath id="clip0_5033_43798">
<rect x="127.708" y="121.72" width="44.8421" height="44.8421" rx="22.4211" transform="rotate(-135 127.708 121.72)" fill="white"/>
</clipPath>
<clipPath id="clip2_5033_43798">
<rect width="23.9158" height="23.9158" fill="white" transform="translate(110.971 90.3447) rotate(-45)"/>
</clipPath>
<clipPath id="clip4_5033_43798">
<rect width="23.9158" height="23.9158" fill="white" transform="translate(157.8 53.0628) rotate(-22.96)"/>
</clipPath>
<clipPath id="clip6_5033_43798">
<rect width="23.9158" height="23.9158" fill="white" transform="translate(216.326 36.4631)"/>
</clipPath>
<clipPath id="clip8_5033_43798">
<rect width="23.9158" height="23.9158" fill="white" transform="translate(275.528 43.8103) rotate(22.5)"/>
</clipPath>
<clipPath id="clip9_5033_43798">
<rect x="296.818" y="90.0118" width="44.8421" height="44.8421" rx="22.4211" transform="rotate(-45 296.818 90.0118)" fill="white"/>
</clipPath>
<clipPath id="clip11_5033_43798">
<rect width="23.9158" height="23.9158" fill="white" transform="translate(328.644 73.3531) rotate(45)"/>
</clipPath>
<clipPath id="clip14_5033_43798">
<rect x="185" y="259" width="86" height="24" rx="12" fill="white"/>
</clipPath>
</defs>
</svg>
