<svg width="450" height="450" viewBox="0 0 450 450" fill="none" xmlns="http://www.w3.org/2000/svg">
<path d="M317.313 323.146V447.914C317.313 448.293 317.162 448.657 316.895 448.926C316.628 449.194 316.265 449.345 315.887 449.345C277.234 449.317 231.26 451.843 197.432 447.156C72.0679 429.753 -20.92 312.48 4.08147 181.734C17.432 111.758 64.9403 53.0934 127.471 22.6946C259.086 -41.2469 419.703 35.2134 445.582 185.72C452.353 225.045 449.585 274.25 448.598 317.224C448.543 319.787 447.254 321.079 444.732 321.097L318.574 321.827C317.733 321.846 317.313 322.286 317.313 323.146ZM310.761 189.902C282.168 109.091 163.192 113.189 140.493 196.723C127.691 243.907 150.664 300.635 198.227 316.41C207.164 319.366 222.387 320.873 243.898 320.929C267.62 320.985 291.343 320.976 315.065 320.901C315.997 320.901 316.463 320.424 316.463 319.469C316.901 290.24 316.792 261.076 316.134 231.978C315.713 212.853 313.922 198.828 310.761 189.902Z" fill="#1D64FF"/>
</svg>
